<svg id="Layer_5" enable-background="new 0 0 64 64" height="512" viewBox="0 0 64 64" width="512" xmlns="http://www.w3.org/2000/svg"><g><path d="m46 5c-1.654 0-3 1.346-3 3s1.346 3 3 3 3-1.346 3-3-1.346-3-3-3zm0 4c-.551 0-1-.449-1-1s.449-1 1-1 1 .449 1 1-.449 1-1 1z"/><path d="m60 1h-28c-1.654 0-3 1.346-3 3v8c0 1.302.839 2.402 2 2.816v13.101c0 12.695-9.688 23.503-22.212 24.993-.438-1.116-1.519-1.91-2.788-1.91h-5v12h5c1.313 0 2.42-.854 2.825-2.031l7.246-.278c24.919-.959 44.484-21.035 44.909-45.869 1.172-.408 2.02-1.513 2.02-2.822v-8c0-1.654-1.346-3-3-3zm-2.857 2c-1.32 1.288-2.143 3.069-2.143 5s.823 3.712 2.143 5h-6.253c1.3-1.272 2.11-3.042 2.11-5s-.81-3.728-2.11-5zm-16.143 5c0-2.757 2.243-5 5-5s5 2.243 5 5-2.243 5-5 5-5-2.243-5-5zm-2 0c0 1.958.81 3.728 2.11 5h-6.253c1.32-1.288 2.143-3.069 2.143-5s-.823-3.712-2.143-5h6.253c-1.3 1.272-2.11 3.042-2.11 5zm-8-4c0-.322.163-.596.401-.779 2.101.617 3.599 2.563 3.599 4.779s-1.498 4.162-3.599 4.779c-.238-.183-.401-.457-.401-.779zm-10 46.405v7.809c-.662.099-1.329.182-2 .252v-6.82c.686-.385 1.352-.8 2-1.241zm-12 4.492c1.367-.161 2.703-.422 4-.781v4.691l-4 .154zm-2 5.103c0 .552-.449 1-1 1h-3v-8h3c.551 0 1 .448 1 1zm8.994-1.308-.994.039v-5.258c.679-.247 1.347-.518 2-.816v5.972c-.336.02-.668.05-1.006.063zm7.006-.821v-8.965c5.346-4.398 8.989-10.776 9.815-17.906h17.185v-2h-17.026c.014-.36.026-.72.026-1.083v-.917h4v-2h-4v-2h21v-2h-21v-2h2v-2h-2v-2h25.976c-.015.67-.042 1.337-.086 2h-21.89v2h21.717c-.074.671-.16 1.338-.263 2h-2.454v2h2.099c-.136.672-.285 1.339-.45 2h-18.649v2h18.1c-.203.674-.421 1.34-.654 2h-4.446v2h3.685c-5.585 13.68-17.74 23.941-32.685 26.871zm38-45.871c0 .322-.163.596-.401.779-2.101-.617-3.599-2.563-3.599-4.779s1.498-4.162 3.599-4.779c.238.183.401.457.401.779z"/><path d="m27.932 46.857 1.517 1.303c.447-.52.882-1.062 1.294-1.609l-1.6-1.201c-.387.515-.791 1.018-1.211 1.507z"/><path d="m30.254 43.767 1.675 1.094c.375-.574.736-1.168 1.072-1.765l-1.742-.982c-.317.562-.653 1.114-1.005 1.653z"/><path d="m32.152 40.397 1.803.865c.296-.617.577-1.253.832-1.891l-1.856-.744c-.241.601-.5 1.19-.779 1.77z"/><path d="m25.33 49.531 1.34 1.484c.476-.429.937-.874 1.385-1.332l-1.43-1.398c-.418.429-.851.845-1.295 1.246z"/><path d="m36.528 48.161 1.09 1.678c5.578-3.627 10.291-8.584 13.628-14.337l-1.729-1.004c-3.181 5.483-7.673 10.208-12.989 13.663z"/></g></svg>